<svg xmlns="http://www.w3.org/2000/svg" width="27.801" height="27.801" viewBox="0 0 27.801 27.801">
  <path id="Icon_awesome-arrow-circle-down" data-name="Icon awesome-arrow-circle-down" d="M28.363,14.463a13.9,13.9,0,1,0-13.9,13.9A13.9,13.9,0,0,0,28.363,14.463Zm-8.049,1.62-4.058-4.232V22.086a1.342,1.342,0,0,1-1.345,1.345h-.9a1.342,1.342,0,0,1-1.345-1.345V11.851L8.611,16.083a1.347,1.347,0,0,1-1.923.022l-.611-.617a1.34,1.34,0,0,1,0-1.9L13.51,6.151a1.34,1.34,0,0,1,1.9,0l7.438,7.438a1.34,1.34,0,0,1,0,1.9l-.611.617a1.347,1.347,0,0,1-1.923-.022Z" transform="translate(-0.563 -0.563)" fill="#fff"/>
</svg>
