<svg xmlns="http://www.w3.org/2000/svg" width="27.801" height="27.801" viewBox="0 0 27.801 27.801">
  <path id="Icon_awesome-arrow-circle-down" data-name="Icon awesome-arrow-circle-down" d="M28.363,14.463a13.9,13.9,0,1,1-13.9-13.9A13.9,13.9,0,0,1,28.363,14.463Zm-8.049-1.62-4.058,4.232V6.84a1.342,1.342,0,0,0-1.345-1.345h-.9A1.342,1.342,0,0,0,12.669,6.84V17.075L8.611,12.843a1.347,1.347,0,0,0-1.923-.022l-.611.617a1.34,1.34,0,0,0,0,1.9l7.432,7.438a1.34,1.34,0,0,0,1.9,0l7.438-7.438a1.34,1.34,0,0,0,0-1.9l-.611-.617a1.347,1.347,0,0,0-1.923.022Z" transform="translate(-0.563 -0.563)" fill="#fc6500"/>
</svg>
