<svg xmlns="http://www.w3.org/2000/svg" width="103.051" height="102.993" viewBox="0 0 103.051 102.993">
  <g id="_2318435_handy_handyman_tool_tool_in_hand_wrench_icon" data-name="2318435_handy_handyman_tool_tool in hand_wrench_icon" transform="translate(-72.6 -72.6)">
    <g id="Group_18421" data-name="Group 18421" transform="translate(120.131 72.6)">
      <path id="Path_51323" data-name="Path 51323" d="M257.5,129.77l-5.587-5.587,5.326-5.326,2.2.579a19.764,19.764,0,0,0,24.923-19.1,20.616,20.616,0,0,0-.318-3.56l-16.21,16.21L251.013,96.163l15.544-15.544c-.666-.058-1.332-.116-2.026-.116a19.733,19.733,0,0,0-19.1,24.923l.579,2.2-3.618,3.618-3.966-3.966-.666.174c-.087-.376-.2-.724-.261-1.1l-.695-.695.463-.463A27.56,27.56,0,0,1,264.531,72.6,27.389,27.389,0,0,1,275.762,75l5.268,2.345L262.215,96.163l5.616,5.616,18.931-18.931,2.489,4.834a27.684,27.684,0,0,1-24.663,40.352,25.371,25.371,0,0,1-4.863-.463Z" transform="translate(-236.8 -72.6)" fill="#fff"/>
    </g>
    <g id="Group_18422" data-name="Group 18422" transform="translate(72.6 141.783)">
      <path id="Path_51324" data-name="Path 51324" d="M88.434,345.41a15.843,15.843,0,0,1-11.2-27.036l6.774-6.774,5.616,5.616-6.774,6.745a7.967,7.967,0,0,0,0,11.231,8.133,8.133,0,0,0,11.2,0l13.75-13.75,5.616,5.616L99.636,340.778A15.717,15.717,0,0,1,88.434,345.41Z" transform="translate(-72.6 -311.6)" fill="#fff"/>
    </g>
    <g id="Group_18425" data-name="Group 18425" transform="translate(72.6 92.4)">
      <g id="Group_18424" data-name="Group 18424" transform="translate(0)">
        <g id="Group_18423" data-name="Group 18423">
          <path id="Path_51325" data-name="Path 51325" d="M106.323,148.931a14.912,14.912,0,0,1,10.971,4.805l1.621,1.939-3.068,3.126,17.773,17.773a5.578,5.578,0,0,1,2.374,4.6,5.956,5.956,0,0,1-5.876,5.876,6.744,6.744,0,0,1-3.01-.782c.145.145.145.463.145.782a5.956,5.956,0,0,1-5.876,5.876,6.744,6.744,0,0,1-3.01-.782c.145.145.145.463.145.782a5.956,5.956,0,0,1-5.876,5.876,5.839,5.839,0,0,1-3.329-.955,5.808,5.808,0,0,1-5.558,3.966,5.612,5.612,0,0,1-4.6-2.229L84.729,185.173a14.728,14.728,0,0,1,0-20.755l11.087-11.087a14.735,14.735,0,0,1,10.508-4.4m0-7.931a22.557,22.557,0,0,0-16.037,6.658L79.2,158.744a22.643,22.643,0,0,0,0,31.957l14.155,14.155a13.446,13.446,0,0,0,10.479,4.834,13.823,13.823,0,0,0,8.626-3.01h.261a13.741,13.741,0,0,0,11.463-6.137,13.772,13.772,0,0,0,8.713-5.876,13.817,13.817,0,0,0,11.029-13.518,13.607,13.607,0,0,0-5.124-10.623L127.02,158.744l2.605-2.634-4.631-5.529-1.621-1.939-.116-.145-.145-.145A22.988,22.988,0,0,0,106.323,141Z" transform="translate(-72.6 -141)" fill="#fff"/>
        </g>
      </g>
    </g>
  </g>
</svg>
