<svg xmlns="http://www.w3.org/2000/svg" width="112.179" height="112.232" viewBox="0 0 112.179 112.232">
  <g id="_24hours_7days" data-name="24hours_7days" transform="translate(-47.002 -47.003)">
    <path id="Path_51326" data-name="Path 51326" d="M156.062,100.984a2.118,2.118,0,0,0-2.119,2.119,50.854,50.854,0,1,1-18.92-39.575h-8.935a2.119,2.119,0,1,0,0,4.238h14.459a2.127,2.127,0,0,0,2.119-2.119V51.188a2.119,2.119,0,0,0-4.238,0v9.661A55.082,55.082,0,1,0,158.181,103.1a2.118,2.118,0,0,0-2.119-2.119Z" fill="#fff" stroke="#fff" stroke-width="2"/>
    <path id="Path_51327" data-name="Path 51327" d="M269.866,194.715l-10.8,29.663a2.118,2.118,0,0,0,3.981,1.448l10.8-29.663a2.118,2.118,0,1,0-3.981-1.448Z" transform="translate(-155.07 -106.819)" fill="#fff" stroke="#fff" stroke-width="2"/>
    <path id="Path_51328" data-name="Path 51328" d="M145.044,220.014a7.775,7.775,0,0,0-2.292-5.533,8.007,8.007,0,0,0-11.066,0,7.772,7.772,0,0,0-2.293,5.533,2.119,2.119,0,0,0,4.238,0,3.567,3.567,0,0,1,1.051-2.537,3.67,3.67,0,0,1,5.074,0,3.587,3.587,0,0,1,0,5.072l-9.742,9.742a2.119,2.119,0,0,0,1.5,3.617h11.412a2.119,2.119,0,0,0,0-4.238h-6.3l6.125-6.125A7.77,7.77,0,0,0,145.044,220.014Z" transform="translate(-59.834 -120.743)" fill="#fff" stroke="#fff" stroke-width="2"/>
    <path id="Path_51329" data-name="Path 51329" d="M202.356,235.7a2.118,2.118,0,0,0,2.119-2.119v-3.16h1.094a2.119,2.119,0,0,0,0-4.238h-1.094V214.1a2.12,2.12,0,0,0-3.891-1.163l-9.313,14.2a2.119,2.119,0,0,0,1.772,3.282h7.194v3.16A2.118,2.118,0,0,0,202.356,235.7Zm-5.39-9.516,3.271-4.989v4.989Z" transform="translate(-105.067 -120.539)" fill="#fff" stroke="#fff" stroke-width="2"/>
    <path id="Path_51330" data-name="Path 51330" d="M325.571,233.584a2.119,2.119,0,1,0,4.238,0v-4.362a19.142,19.142,0,0,1,5.643-13.621,2.119,2.119,0,0,0-1.5-3.617H321.427a2.119,2.119,0,1,0,0,4.238h8.058a23.336,23.336,0,0,0-3.915,13Z" transform="translate(-199.449 -120.539)" fill="#fff" stroke="#fff" stroke-width="2"/>
  </g>
</svg>
