<svg xmlns="http://www.w3.org/2000/svg" width="101.282" height="102.993" viewBox="0 0 101.282 102.993">
  <g id="_3339028_business_tools_price_tag_label_label_card_icon" data-name="3339028_business tools_price_tag_label_label card_icon" transform="translate(-0.498 0)">
    <path id="Path_51331" data-name="Path 51331" d="M101.278.5a1.715,1.715,0,0,0-2.427,0L92.486,6.867H52.519L2.273,57.526a6.055,6.055,0,0,0,0,8.566l35.133,35.133a6.069,6.069,0,0,0,8.581-.017L94.913,50.96V9.294l6.364-6.364A1.716,1.716,0,0,0,101.278.5Zm-9.8,49.063L43.544,98.8a2.628,2.628,0,0,1-3.711,0L4.7,63.665a2.623,2.623,0,0,1,.005-3.717L53.949,10.3H89.054l-8.3,8.3a8.609,8.609,0,1,0,2.427,2.427l8.3-8.3ZM81.182,25.75a5.15,5.15,0,1,1-5.15-5.15,5.09,5.09,0,0,1,2.206.517l-3.42,3.42a1.716,1.716,0,1,0,2.427,2.427l3.42-3.42A5.09,5.09,0,0,1,81.182,25.75Z" transform="translate(0)" fill="#fff"/>
    <path id="Path_51332" data-name="Path 51332" d="M58.737,23.021a1.716,1.716,0,1,0-2.427-2.427l-1.281,1.281a15.39,15.39,0,0,0-10.935-3.325,10.117,10.117,0,0,0-7.057,3.765,10.807,10.807,0,0,0-2.317,8.109l1.306,10.454L20.667,56.236a12.025,12.025,0,0,1,1.116-15.683,1.716,1.716,0,0,0-2.427-2.427,15.465,15.465,0,0,0-1.142,20.564l-1.96,1.96a1.716,1.716,0,1,0,2.427,2.427l1.962-1.962A15.418,15.418,0,0,0,30.275,64.5q.646,0,1.3-.055a10.1,10.1,0,0,0,7.057-3.763,10.8,10.8,0,0,0,2.319-8.111L39.643,42.117,55,26.758a12.028,12.028,0,0,1-1.118,15.685,1.716,1.716,0,0,0,2.427,2.427,15.47,15.47,0,0,0,1.142-20.565ZM37.538,53a7.355,7.355,0,0,1-1.578,5.522,6.706,6.706,0,0,1-4.676,2.506,12.094,12.094,0,0,1-8.19-2.362l13.469-13.47Zm.585-23A7.357,7.357,0,0,1,39.7,24.477a6.718,6.718,0,0,1,4.678-2.508,12.035,12.035,0,0,1,8.192,2.362L39.1,37.8Z" transform="translate(10.279 13.253)" fill="#fff"/>
  </g>
</svg>
