<svg xmlns="http://www.w3.org/2000/svg" width="13.128" height="21.005" viewBox="0 0 13.128 21.005">
  <path id="Icon_awesome-mobile-alt" data-name="Icon awesome-mobile-alt" d="M11.159,0H1.969A1.97,1.97,0,0,0,0,1.969V19.035A1.97,1.97,0,0,0,1.969,21h9.19a1.97,1.97,0,0,0,1.969-1.969V1.969A1.97,1.97,0,0,0,11.159,0ZM6.564,19.692a1.313,1.313,0,1,1,1.313-1.313A1.311,1.311,0,0,1,6.564,19.692Zm4.595-4.431a.494.494,0,0,1-.492.492h-8.2a.494.494,0,0,1-.492-.492V2.461a.494.494,0,0,1,.492-.492h8.2a.494.494,0,0,1,.492.492Z" fill="#fc6500"/>
</svg>
