<svg xmlns="http://www.w3.org/2000/svg" width="30.5" height="28.322" viewBox="0 0 30.5 28.322">
  <path id="Icon_ionic-ios-star" data-name="Icon ionic-ios-star" d="M31.593,13.179H21.578L18.535,4.1a1.1,1.1,0,0,0-2.07,0l-3.043,9.082H3.339A1.092,1.092,0,0,0,2.25,14.268a.8.8,0,0,0,.02.184,1.047,1.047,0,0,0,.456.769l8.231,5.8L7.8,30.206a1.092,1.092,0,0,0,.374,1.225,1.053,1.053,0,0,0,.613.266,1.335,1.335,0,0,0,.681-.245L17.5,25.726l8.034,5.726a1.276,1.276,0,0,0,.681.245.978.978,0,0,0,.606-.266,1.079,1.079,0,0,0,.374-1.225l-3.159-9.184L32.2,15.167l.2-.17a1.142,1.142,0,0,0,.354-.728A1.153,1.153,0,0,0,31.593,13.179Z" transform="translate(-2.25 -3.375)" fill="#fc6500"/>
</svg>
