<svg xmlns="http://www.w3.org/2000/svg" width="15.852" height="14.43" viewBox="0 0 15.852 14.43">
  <path id="Icon_ionic-ios-star" data-name="Icon ionic-ios-star" d="M17.5,8.37H12.3L10.714,3.743a.577.577,0,0,0-1.076,0L8.056,8.37H2.816a.562.562,0,0,0-.566.555.4.4,0,0,0,.011.094A.531.531,0,0,0,2.5,9.41l4.278,2.955L5.134,17.045a.6.6,0,0,0,.513.76A.7.7,0,0,0,6,17.68l4.175-2.917,4.175,2.917a.671.671,0,0,0,.354.125.513.513,0,0,0,.315-.135.544.544,0,0,0,.195-.624l-1.642-4.679,4.242-2.983.1-.087a.578.578,0,0,0,.184-.371A.594.594,0,0,0,17.5,8.37Z" transform="translate(-2.25 -3.375)" fill="#fc6500"/>
</svg>
