<svg xmlns="http://www.w3.org/2000/svg" width="48.334" height="49.697" viewBox="0 0 48.334 49.697">
  <g id="_4213431_bullets_checklist_choose_list_points_icon" data-name="4213431_bullets_checklist_choose_list_points_icon" transform="translate(-7 -7)">
    <rect id="Rectangle_12885" data-name="Rectangle 12885" width="28.163" height="3.806" transform="translate(27.171 11.297)" fill="#fc6500"/>
    <rect id="Rectangle_12886" data-name="Rectangle 12886" width="28.163" height="3.045" transform="translate(27.171 30.326)" fill="#fc6500"/>
    <rect id="Rectangle_12887" data-name="Rectangle 12887" width="28.163" height="3.806" transform="translate(27.171 48.594)" fill="#fc6500"/>
    <path id="Path_46951" data-name="Path 46951" d="M13.1,105.206A6.1,6.1,0,1,0,7,99.1,6.121,6.121,0,0,0,13.1,105.206Zm0-8.719A2.616,2.616,0,1,1,10.488,99.1,2.623,2.623,0,0,1,13.1,96.488Z" transform="translate(0 -48.509)" fill="#fc6500"/>
    <path id="Path_46952" data-name="Path 46952" d="M13.1,62.206A6.1,6.1,0,1,0,7,56.1,6.121,6.121,0,0,0,13.1,62.206Zm0-8.719A2.616,2.616,0,1,1,10.488,56.1,2.623,2.623,0,0,1,13.1,53.488Z" transform="translate(0 -24.255)" fill="#fc6500"/>
    <path id="Path_46953" data-name="Path 46953" d="M13.1,19.206A6.1,6.1,0,1,0,7,13.1,6.121,6.121,0,0,0,13.1,19.206Zm0-8.719A2.616,2.616,0,1,1,10.488,13.1,2.623,2.623,0,0,1,13.1,10.488Z" transform="translate(0 0)" fill="#fc6500"/>
  </g>
</svg>
