<svg xmlns="http://www.w3.org/2000/svg" width="94" height="94" viewBox="0 0 94 94">
  <g id="Group_18486" data-name="Group 18486" transform="translate(-1095 -2359)">
    <circle id="Ellipse_401" data-name="Ellipse 401" cx="47" cy="47" r="47" transform="translate(1095 2359)" fill="#fff"/>
    <path id="Icon_awesome-calendar-alt" data-name="Icon awesome-calendar-alt" d="M0,25.078a2.6,2.6,0,0,0,2.594,2.594H21.619a2.6,2.6,0,0,0,2.594-2.594v-14.7H0ZM17.295,14.484a.65.65,0,0,1,.649-.649h2.162a.65.65,0,0,1,.649.649v2.162a.65.65,0,0,1-.649.649H17.943a.65.65,0,0,1-.649-.649Zm0,6.918a.65.65,0,0,1,.649-.649h2.162a.65.65,0,0,1,.649.649v2.162a.65.65,0,0,1-.649.649H17.943a.65.65,0,0,1-.649-.649Zm-6.918-6.918a.65.65,0,0,1,.649-.649h2.162a.65.65,0,0,1,.649.649v2.162a.65.65,0,0,1-.649.649H11.026a.65.65,0,0,1-.649-.649Zm0,6.918a.65.65,0,0,1,.649-.649h2.162a.65.65,0,0,1,.649.649v2.162a.65.65,0,0,1-.649.649H11.026a.65.65,0,0,1-.649-.649ZM3.459,14.484a.65.65,0,0,1,.649-.649H6.269a.65.65,0,0,1,.649.649v2.162a.65.65,0,0,1-.649.649H4.108a.65.65,0,0,1-.649-.649Zm0,6.918a.65.65,0,0,1,.649-.649H6.269a.65.65,0,0,1,.649.649v2.162a.65.65,0,0,1-.649.649H4.108a.65.65,0,0,1-.649-.649ZM21.619,3.459H19.024V.865A.867.867,0,0,0,18.16,0H16.43a.867.867,0,0,0-.865.865V3.459H8.647V.865A.867.867,0,0,0,7.783,0H6.053a.867.867,0,0,0-.865.865V3.459H2.594A2.6,2.6,0,0,0,0,6.053V8.647H24.213V6.053A2.6,2.6,0,0,0,21.619,3.459Z" transform="translate(1130 2392)" fill="#fc6500"/>
  </g>
</svg>
