<svg xmlns="http://www.w3.org/2000/svg" width="94" height="94" viewBox="0 0 94 94">
  <g id="Group_18485" data-name="Group 18485" transform="translate(-702 -2359)">
    <circle id="Ellipse_400" data-name="Ellipse 400" cx="47" cy="47" r="47" transform="translate(702 2359)" fill="#fff"/>
    <path id="Icon_awesome-user-alt" data-name="Icon awesome-user-alt" d="M13.418,15.1A7.548,7.548,0,1,0,5.87,7.548,7.55,7.55,0,0,0,13.418,15.1Zm6.709,1.677H17.239a9.124,9.124,0,0,1-7.642,0H6.709A6.708,6.708,0,0,0,0,23.481v.839a2.517,2.517,0,0,0,2.516,2.516h21.8a2.517,2.517,0,0,0,2.516-2.516v-.839A6.708,6.708,0,0,0,20.127,16.772Z" transform="translate(736 2393)" fill="#fc6500"/>
  </g>
</svg>
