<svg xmlns="http://www.w3.org/2000/svg" width="94" height="94" viewBox="0 0 94 94">
  <g id="Group_18484" data-name="Group 18484" transform="translate(-310 -2359)">
    <circle id="Ellipse_399" data-name="Ellipse 399" cx="47" cy="47" r="47" transform="translate(310 2359)" fill="#fff"/>
    <path id="Icon_awesome-thumbs-up" data-name="Icon awesome-thumbs-up" d="M6.375,13.732h-4.9A1.471,1.471,0,0,0,0,15.2V29.915a1.471,1.471,0,0,0,1.471,1.471h4.9a1.471,1.471,0,0,0,1.471-1.471V15.2A1.471,1.471,0,0,0,6.375,13.732Zm-2.452,15.2a1.471,1.471,0,1,1,1.471-1.471A1.471,1.471,0,0,1,3.923,28.935ZM23.54,4.993c0,2.6-1.592,4.059-2.04,5.8h6.236a3.663,3.663,0,0,1,3.651,3.562A4.438,4.438,0,0,1,30.2,17.367l-.007.007a5.121,5.121,0,0,1-.571,4.872,4.848,4.848,0,0,1-1,4.583,3.254,3.254,0,0,1-.377,2.736c-1.251,1.8-4.352,1.823-6.975,1.823h-.174a17.6,17.6,0,0,1-7.329-1.945,9.648,9.648,0,0,0-3.228-.992.736.736,0,0,1-.722-.736V14.61a.735.735,0,0,1,.218-.522c2.428-2.4,3.473-4.94,5.463-6.934a7.424,7.424,0,0,0,1.557-3.611C17.319,2.409,17.889,0,19.126,0,20.6,0,23.54.49,23.54,4.993Z" transform="translate(341 2390)" fill="#fc6500"/>
  </g>
</svg>
