<svg xmlns="http://www.w3.org/2000/svg" width="94" height="94" viewBox="0 0 94 94">
  <g id="Group_18487" data-name="Group 18487" transform="translate(-1487 -2359)">
    <circle id="Ellipse_402" data-name="Ellipse 402" cx="47" cy="47" r="47" transform="translate(1487 2359)" fill="#fff"/>
    <path id="Icon_awesome-smile" data-name="Icon awesome-smile" d="M14.56.563a14.56,14.56,0,1,0,14.56,14.56A14.557,14.557,0,0,0,14.56.563Zm4.7,9.863A1.879,1.879,0,1,1,17.378,12.3,1.877,1.877,0,0,1,19.256,10.425Zm-9.393,0A1.879,1.879,0,1,1,7.984,12.3,1.877,1.877,0,0,1,9.863,10.425ZM21.3,20.418a8.77,8.77,0,0,1-13.479,0,.94.94,0,0,1,1.444-1.2,6.9,6.9,0,0,0,10.591,0A.94.94,0,0,1,21.3,20.418Z" transform="translate(1520.44 2390.879)" fill="#fc6500"/>
  </g>
</svg>
